<svg width="2732" height="89" viewBox="0 0 2732 89" fill="none" xmlns="http://www.w3.org/2000/svg">
<rect width="2732" height="89" fill="#2C2827"/>
<path d="M967.937 44.85C967.937 42.8587 968.372 41.08 969.242 39.514C970.112 37.9287 971.301 36.701 972.809 35.831C974.317 34.9417 975.999 34.497 977.855 34.497C980.117 34.497 982.05 35.0383 983.655 36.121C985.279 37.1843 986.458 38.6923 987.193 40.645H984.815C984.235 39.2723 983.345 38.1993 982.147 37.426C980.967 36.6527 979.537 36.266 977.855 36.266C976.366 36.266 975.022 36.614 973.824 37.31C972.644 38.006 971.716 39.0113 971.04 40.326C970.363 41.6213 970.025 43.1293 970.025 44.85C970.025 46.5707 970.363 48.0787 971.04 49.374C971.716 50.6693 972.644 51.665 973.824 52.361C975.022 53.057 976.366 53.405 977.855 53.405C979.537 53.405 980.967 53.028 982.147 52.274C983.345 51.5007 984.235 50.4373 984.815 49.084H987.193C986.458 51.0173 985.279 52.5157 983.655 53.579C982.031 54.6423 980.097 55.174 977.855 55.174C975.999 55.174 974.317 54.739 972.809 53.869C971.301 52.9797 970.112 51.752 969.242 50.186C968.372 48.62 967.937 46.8413 967.937 44.85ZM999.619 55.232C998.13 55.232 996.787 54.9033 995.588 54.246C994.409 53.5693 993.471 52.622 992.775 51.404C992.098 50.1667 991.76 48.7263 991.76 47.083C991.76 45.4397 992.108 44.009 992.804 42.791C993.5 41.5537 994.447 40.6063 995.646 39.949C996.845 39.2723 998.188 38.934 999.677 38.934C1001.17 38.934 1002.51 39.2723 1003.71 39.949C1004.93 40.6063 1005.87 41.5537 1006.55 42.791C1007.25 44.009 1007.59 45.4397 1007.59 47.083C1007.59 48.707 1007.25 50.1377 1006.55 51.375C1005.85 52.6123 1004.9 53.5693 1003.68 54.246C1002.46 54.9033 1001.11 55.232 999.619 55.232ZM999.619 53.463C1000.66 53.463 1001.63 53.231 1002.52 52.767C1003.41 52.2837 1004.12 51.5683 1004.66 50.621C1005.23 49.6543 1005.51 48.475 1005.51 47.083C1005.51 45.691 1005.24 44.5213 1004.69 43.574C1004.15 42.6073 1003.44 41.892 1002.55 41.428C1001.66 40.9447 1000.69 40.703 999.648 40.703C998.604 40.703 997.637 40.9447 996.748 41.428C995.859 41.892 995.143 42.6073 994.602 43.574C994.08 44.5213 993.819 45.691 993.819 47.083C993.819 48.475 994.08 49.6543 994.602 50.621C995.143 51.5683 995.849 52.2837 996.719 52.767C997.608 53.231 998.575 53.463 999.619 53.463ZM1014.75 42.646C1015.25 41.5827 1016.04 40.703 1017.12 40.007C1018.23 39.2917 1019.53 38.934 1021.04 38.934C1022.47 38.934 1023.75 39.2723 1024.9 39.949C1026.06 40.6063 1026.95 41.5537 1027.59 42.791C1028.25 44.009 1028.58 45.43 1028.58 47.054C1028.58 48.678 1028.25 50.1087 1027.59 51.346C1026.95 52.5833 1026.06 53.5403 1024.9 54.217C1023.75 54.8937 1022.47 55.232 1021.04 55.232C1019.55 55.232 1018.25 54.884 1017.15 54.188C1016.05 53.4727 1015.25 52.5833 1014.75 51.52V62.482H1012.74V39.166H1014.75V42.646ZM1026.52 47.054C1026.52 45.7393 1026.26 44.6083 1025.74 43.661C1025.23 42.6943 1024.54 41.9597 1023.65 41.457C1022.76 40.9543 1021.75 40.703 1020.63 40.703C1019.55 40.703 1018.55 40.964 1017.65 41.486C1016.76 42.008 1016.05 42.7523 1015.53 43.719C1015.01 44.6857 1014.75 45.807 1014.75 47.083C1014.75 48.359 1015.01 49.4803 1015.53 50.447C1016.05 51.4137 1016.76 52.158 1017.65 52.68C1018.55 53.202 1019.55 53.463 1020.63 53.463C1021.75 53.463 1022.76 53.2117 1023.65 52.709C1024.54 52.187 1025.23 51.4427 1025.74 50.476C1026.26 49.49 1026.52 48.3493 1026.52 47.054ZM1046.81 39.166L1037.42 62.453H1035.3L1038.37 54.913L1031.88 39.166H1034.11L1039.51 52.68L1044.73 39.166H1046.81ZM1053.05 41.979C1053.49 40.993 1054.17 40.2293 1055.08 39.688C1056 39.1467 1057.14 38.876 1058.47 38.876V40.993H1057.92C1056.45 40.993 1055.27 41.3893 1054.38 42.182C1053.49 42.9747 1053.05 44.299 1053.05 46.155V55H1051.02V39.166H1053.05V41.979ZM1063.99 36.179C1063.58 36.179 1063.23 36.034 1062.94 35.744C1062.65 35.454 1062.51 35.0963 1062.51 34.671C1062.51 34.2457 1062.65 33.8977 1062.94 33.627C1063.23 33.337 1063.58 33.192 1063.99 33.192C1064.39 33.192 1064.74 33.337 1065.03 33.627C1065.32 33.8977 1065.47 34.2457 1065.47 34.671C1065.47 35.0963 1065.32 35.454 1065.03 35.744C1064.74 36.034 1064.39 36.179 1063.99 36.179ZM1065 39.166V55H1062.97V39.166H1065ZM1077.69 38.934C1079.18 38.934 1080.48 39.282 1081.58 39.978C1082.68 40.674 1083.47 41.5537 1083.96 42.617V39.166H1085.99V55.406C1085.99 56.856 1085.67 58.1417 1085.03 59.263C1084.41 60.3843 1083.54 61.2447 1082.42 61.844C1081.3 62.4627 1080.02 62.772 1078.59 62.772C1076.56 62.772 1074.87 62.2887 1073.52 61.322C1072.18 60.3553 1071.35 59.0407 1071.02 57.378H1073.02C1073.37 58.48 1074.03 59.3597 1074.99 60.017C1075.98 60.6743 1077.18 61.003 1078.59 61.003C1079.61 61.003 1080.53 60.7807 1081.35 60.336C1082.16 59.9107 1082.8 59.2727 1083.26 58.422C1083.72 57.5713 1083.96 56.566 1083.96 55.406V51.491C1083.45 52.5737 1082.65 53.4727 1081.55 54.188C1080.47 54.884 1079.18 55.232 1077.69 55.232C1076.24 55.232 1074.94 54.8937 1073.78 54.217C1072.64 53.5403 1071.74 52.5833 1071.08 51.346C1070.44 50.1087 1070.12 48.678 1070.12 47.054C1070.12 45.43 1070.44 44.009 1071.08 42.791C1071.74 41.5537 1072.64 40.6063 1073.78 39.949C1074.94 39.2723 1076.24 38.934 1077.69 38.934ZM1083.96 47.083C1083.96 45.807 1083.69 44.6857 1083.17 43.719C1082.65 42.7523 1081.93 42.008 1081.03 41.486C1080.14 40.964 1079.15 40.703 1078.07 40.703C1076.95 40.703 1075.94 40.9543 1075.05 41.457C1074.16 41.9597 1073.46 42.6943 1072.94 43.661C1072.43 44.6083 1072.18 45.7393 1072.18 47.054C1072.18 48.3493 1072.43 49.49 1072.94 50.476C1073.46 51.4427 1074.16 52.187 1075.05 52.709C1075.94 53.2117 1076.95 53.463 1078.07 53.463C1079.15 53.463 1080.14 53.202 1081.03 52.68C1081.93 52.158 1082.65 51.4137 1083.17 50.447C1083.69 49.4803 1083.96 48.359 1083.96 47.083ZM1099.61 38.876C1100.81 38.876 1101.88 39.1273 1102.83 39.63C1103.8 40.1327 1104.55 40.906 1105.09 41.95C1105.65 42.9747 1105.93 44.2313 1105.93 45.72V55H1103.93V45.952C1103.93 44.2313 1103.5 42.9167 1102.63 42.008C1101.77 41.0993 1100.61 40.645 1099.12 40.645C1097.59 40.645 1096.37 41.1283 1095.46 42.095C1094.55 43.0617 1094.1 44.4827 1094.1 46.358V55H1092.07V33.54H1094.1V41.863C1094.6 40.9157 1095.34 40.181 1096.3 39.659C1097.29 39.137 1098.39 38.876 1099.61 38.876ZM1114.51 40.877V50.708C1114.51 51.6747 1114.69 52.3417 1115.06 52.709C1115.43 53.0763 1116.08 53.26 1117 53.26H1118.86V55H1116.69C1115.25 55 1114.19 54.6713 1113.5 54.014C1112.8 53.3373 1112.45 52.2353 1112.45 50.708V40.877H1110.25V39.166H1112.45V35.193H1114.51V39.166H1118.86V40.877H1114.51ZM1142.29 34.613C1144.24 34.613 1145.97 35.048 1147.48 35.918C1149.01 36.788 1150.19 37.9963 1151.02 39.543C1151.87 41.0897 1152.29 42.8587 1152.29 44.85C1152.29 46.8413 1151.87 48.62 1151.02 50.186C1150.19 51.7327 1149.01 52.941 1147.48 53.811C1145.97 54.681 1144.24 55.116 1142.29 55.116C1140.34 55.116 1138.6 54.681 1137.07 53.811C1135.56 52.941 1134.38 51.7327 1133.53 50.186C1132.7 48.62 1132.28 46.8413 1132.28 44.85C1132.28 42.8587 1132.7 41.0897 1133.53 39.543C1134.38 37.9963 1135.56 36.788 1137.07 35.918C1138.6 35.048 1140.34 34.613 1142.29 34.613ZM1142.29 35.57C1140.47 35.57 1138.89 35.9663 1137.53 36.759C1136.2 37.5323 1135.16 38.6247 1134.43 40.036C1133.69 41.428 1133.33 43.0327 1133.33 44.85C1133.33 46.6673 1133.69 48.2817 1134.43 49.693C1135.16 51.085 1136.21 52.1773 1137.56 52.97C1138.91 53.7433 1140.49 54.13 1142.29 54.13C1144.09 54.13 1145.66 53.7433 1147.02 52.97C1148.37 52.1773 1149.41 51.085 1150.15 49.693C1150.88 48.2817 1151.25 46.6673 1151.25 44.85C1151.25 43.0327 1150.88 41.428 1150.15 40.036C1149.41 38.6247 1148.37 37.5323 1147.02 36.759C1145.68 35.9663 1144.11 35.57 1142.29 35.57ZM1142.29 38.064C1141.13 38.064 1140.07 38.3347 1139.13 38.876C1138.18 39.4173 1137.43 40.2003 1136.87 41.225C1136.3 42.2497 1136.02 43.4483 1136.02 44.821C1136.02 46.213 1136.3 47.4213 1136.87 48.446C1137.43 49.4707 1138.18 50.2537 1139.13 50.795C1140.07 51.3363 1141.13 51.607 1142.29 51.607C1143.72 51.607 1144.97 51.2203 1146.03 50.447C1147.11 49.6543 1147.84 48.591 1148.2 47.257H1146.32C1146.01 48.185 1145.51 48.8907 1144.81 49.374C1144.12 49.8573 1143.27 50.099 1142.29 50.099C1141.01 50.099 1139.95 49.6447 1139.1 48.736C1138.27 47.808 1137.85 46.5127 1137.85 44.85C1137.85 43.1873 1138.27 41.892 1139.1 40.964C1139.95 40.036 1141.01 39.572 1142.29 39.572C1143.24 39.572 1144.07 39.8233 1144.78 40.326C1145.52 40.8093 1146.03 41.515 1146.32 42.443H1148.2C1147.84 41.051 1147.12 39.978 1146.06 39.224C1144.99 38.4507 1143.74 38.064 1142.29 38.064ZM1166.16 53.405C1169.72 50.737 1172.47 48.3493 1174.4 46.242C1176.35 44.1153 1177.33 42.037 1177.33 40.007C1177.33 38.673 1176.99 37.6097 1176.31 36.817C1175.66 36.005 1174.57 35.599 1173.07 35.599C1171.6 35.599 1170.46 36.063 1169.64 36.991C1168.85 37.8997 1168.41 39.1177 1168.31 40.645H1166.34C1166.45 38.499 1167.11 36.8363 1168.31 35.657C1169.53 34.4583 1171.11 33.859 1173.07 33.859C1174.94 33.859 1176.46 34.3907 1177.62 35.454C1178.78 36.498 1179.36 37.9867 1179.36 39.92C1179.36 42.2593 1178.38 44.531 1176.43 46.735C1174.5 48.9197 1172.11 51.056 1169.27 53.144H1180V54.855H1166.16V53.405ZM1184.62 44.415C1184.62 41.0897 1185.13 38.5087 1186.15 36.672C1187.18 34.8353 1189.01 33.917 1191.66 33.917C1194.31 33.917 1196.15 34.8353 1197.17 36.672C1198.2 38.5087 1198.71 41.0897 1198.71 44.415C1198.71 47.7983 1198.2 50.418 1197.17 52.274C1196.15 54.13 1194.31 55.058 1191.66 55.058C1188.99 55.058 1187.15 54.13 1186.12 52.274C1185.12 50.418 1184.62 47.7983 1184.62 44.415ZM1196.71 44.415C1196.71 42.617 1196.58 41.0993 1196.33 39.862C1196.08 38.6247 1195.59 37.629 1194.85 36.875C1194.12 36.121 1193.05 35.744 1191.66 35.744C1190.27 35.744 1189.21 36.121 1188.47 36.875C1187.74 37.629 1187.25 38.6247 1186.99 39.862C1186.74 41.0993 1186.62 42.617 1186.62 44.415C1186.62 46.271 1186.74 47.8273 1186.99 49.084C1187.25 50.3213 1187.74 51.317 1188.47 52.071C1189.21 52.825 1190.27 53.202 1191.66 53.202C1193.05 53.202 1194.12 52.825 1194.85 52.071C1195.59 51.317 1196.08 50.3213 1196.33 49.084C1196.58 47.8273 1196.71 46.271 1196.71 44.415ZM1203.53 53.405C1207.09 50.737 1209.83 48.3493 1211.77 46.242C1213.72 44.1153 1214.69 42.037 1214.69 40.007C1214.69 38.673 1214.36 37.6097 1213.68 36.817C1213.02 36.005 1211.94 35.599 1210.43 35.599C1208.96 35.599 1207.82 36.063 1207.01 36.991C1206.22 37.8997 1205.77 39.1177 1205.68 40.645H1203.7C1203.82 38.499 1204.48 36.8363 1205.68 35.657C1206.89 34.4583 1208.48 33.859 1210.43 33.859C1212.31 33.859 1213.82 34.3907 1214.98 35.454C1216.14 36.498 1216.72 37.9867 1216.72 39.92C1216.72 42.2593 1215.75 44.531 1213.8 46.735C1211.86 48.9197 1209.47 51.056 1206.63 53.144H1217.36V54.855H1203.53V53.405ZM1221.08 50.07V48.533L1231.64 34.323H1234.05V48.301H1237.15V50.07H1234.05V55H1232.04V50.07H1221.08ZM1232.13 36.556L1223.43 48.301H1232.13V36.556ZM1243.51 51.636L1240.49 59.234H1239.1L1241.25 51.636H1243.51ZM1269.27 50.186H1260.05L1258.28 55H1256.13L1263.53 34.99H1265.82L1273.18 55H1271.04L1269.27 50.186ZM1268.66 48.504L1264.66 37.542L1260.65 48.504H1268.66ZM1285.31 38.876C1287.21 38.876 1288.76 39.4657 1289.95 40.645C1291.15 41.805 1291.75 43.4967 1291.75 45.72V55H1289.75V45.952C1289.75 44.2313 1289.32 42.9167 1288.45 42.008C1287.6 41.0993 1286.43 40.645 1284.94 40.645C1283.41 40.645 1282.19 41.1283 1281.28 42.095C1280.37 43.0617 1279.92 44.4827 1279.92 46.358V55H1277.89V39.166H1279.92V41.863C1280.42 40.8963 1281.15 40.1617 1282.1 39.659C1283.04 39.137 1284.12 38.876 1285.31 38.876ZM1310.74 39.166L1301.35 62.453H1299.23L1302.3 54.913L1295.81 39.166H1298.04L1303.43 52.68L1308.65 39.166H1310.74ZM1314.02 47.054C1314.02 45.43 1314.34 44.009 1314.97 42.791C1315.63 41.5537 1316.53 40.6063 1317.67 39.949C1318.83 39.2723 1320.14 38.934 1321.59 38.934C1323.09 38.934 1324.39 39.282 1325.47 39.978C1326.57 40.674 1327.37 41.5633 1327.85 42.646V39.166H1329.88V55H1327.85V51.491C1327.35 52.5737 1326.54 53.4727 1325.44 54.188C1324.36 54.884 1323.06 55.232 1321.56 55.232C1320.13 55.232 1318.83 54.8937 1317.67 54.217C1316.53 53.5403 1315.63 52.5833 1314.97 51.346C1314.34 50.1087 1314.02 48.678 1314.02 47.054ZM1327.85 47.083C1327.85 45.807 1327.59 44.6857 1327.07 43.719C1326.54 42.7523 1325.83 42.008 1324.92 41.486C1324.03 40.964 1323.05 40.703 1321.96 40.703C1320.84 40.703 1319.84 40.9543 1318.95 41.457C1318.06 41.9597 1317.35 42.6943 1316.83 43.661C1316.33 44.6083 1316.08 45.7393 1316.08 47.054C1316.08 48.3493 1316.33 49.49 1316.83 50.476C1317.35 51.4427 1318.06 52.187 1318.95 52.709C1319.84 53.2117 1320.84 53.463 1321.96 53.463C1323.05 53.463 1324.03 53.202 1324.92 52.68C1325.83 52.158 1326.54 51.4137 1327.07 50.447C1327.59 49.4803 1327.85 48.359 1327.85 47.083ZM1347.71 50.186H1338.49L1336.72 55H1334.57L1341.97 34.99H1344.26L1351.62 55H1349.48L1347.71 50.186ZM1347.1 48.504L1343.1 37.542L1339.1 48.504H1347.1ZM1358.33 42.646C1358.84 41.5827 1359.63 40.703 1360.71 40.007C1361.81 39.2917 1363.12 38.934 1364.63 38.934C1366.06 38.934 1367.34 39.2723 1368.48 39.949C1369.64 40.6063 1370.54 41.5537 1371.18 42.791C1371.84 44.009 1372.17 45.43 1372.17 47.054C1372.17 48.678 1371.84 50.1087 1371.18 51.346C1370.54 52.5833 1369.64 53.5403 1368.48 54.217C1367.34 54.8937 1366.06 55.232 1364.63 55.232C1363.14 55.232 1361.84 54.884 1360.74 54.188C1359.64 53.4727 1358.84 52.5833 1358.33 51.52V62.482H1356.33V39.166H1358.33V42.646ZM1370.11 47.054C1370.11 45.7393 1369.85 44.6083 1369.32 43.661C1368.82 42.6943 1368.13 41.9597 1367.24 41.457C1366.35 40.9543 1365.34 40.703 1364.22 40.703C1363.14 40.703 1362.14 40.964 1361.23 41.486C1360.34 42.008 1359.64 42.7523 1359.12 43.719C1358.59 44.6857 1358.33 45.807 1358.33 47.083C1358.33 48.359 1358.59 49.4803 1359.12 50.447C1359.64 51.4137 1360.34 52.158 1361.23 52.68C1362.14 53.202 1363.14 53.463 1364.22 53.463C1365.34 53.463 1366.35 53.2117 1367.24 52.709C1368.13 52.187 1368.82 51.4427 1369.32 50.476C1369.85 49.49 1370.11 48.3493 1370.11 47.054ZM1379.35 42.646C1379.86 41.5827 1380.65 40.703 1381.73 40.007C1382.83 39.2917 1384.14 38.934 1385.65 38.934C1387.08 38.934 1388.36 39.2723 1389.5 39.949C1390.66 40.6063 1391.56 41.5537 1392.2 42.791C1392.86 44.009 1393.19 45.43 1393.19 47.054C1393.19 48.678 1392.86 50.1087 1392.2 51.346C1391.56 52.5833 1390.66 53.5403 1389.5 54.217C1388.36 54.8937 1387.08 55.232 1385.65 55.232C1384.16 55.232 1382.86 54.884 1381.76 54.188C1380.66 53.4727 1379.86 52.5833 1379.35 51.52V62.482H1377.35V39.166H1379.35V42.646ZM1391.13 47.054C1391.13 45.7393 1390.87 44.6083 1390.34 43.661C1389.84 42.6943 1389.14 41.9597 1388.26 41.457C1387.37 40.9543 1386.36 40.703 1385.24 40.703C1384.16 40.703 1383.16 40.964 1382.25 41.486C1381.36 42.008 1380.66 42.7523 1380.14 43.719C1379.61 44.6857 1379.35 45.807 1379.35 47.083C1379.35 48.359 1379.61 49.4803 1380.14 50.447C1380.66 51.4137 1381.36 52.158 1382.25 52.68C1383.16 53.202 1384.16 53.463 1385.24 53.463C1386.36 53.463 1387.37 53.2117 1388.26 52.709C1389.14 52.187 1389.84 51.4427 1390.34 50.476C1390.87 49.49 1391.13 48.3493 1391.13 47.054ZM1397.44 47.054C1397.44 45.43 1397.76 44.009 1398.4 42.791C1399.06 41.5537 1399.96 40.6063 1401.1 39.949C1402.26 39.2723 1403.56 38.934 1405.01 38.934C1406.52 38.934 1407.82 39.282 1408.9 39.978C1410 40.674 1410.79 41.5633 1411.28 42.646V39.166H1413.31V55H1411.28V51.491C1410.77 52.5737 1409.97 53.4727 1408.87 54.188C1407.79 54.884 1406.49 55.232 1404.98 55.232C1403.55 55.232 1402.26 54.8937 1401.1 54.217C1399.96 53.5403 1399.06 52.5833 1398.4 51.346C1397.76 50.1087 1397.44 48.678 1397.44 47.054ZM1411.28 47.083C1411.28 45.807 1411.01 44.6857 1410.49 43.719C1409.97 42.7523 1409.26 42.008 1408.35 41.486C1407.46 40.964 1406.47 40.703 1405.39 40.703C1404.27 40.703 1403.26 40.9543 1402.37 41.457C1401.48 41.9597 1400.78 42.6943 1400.26 43.661C1399.75 44.6083 1399.5 45.7393 1399.5 47.054C1399.5 48.3493 1399.75 49.49 1400.26 50.476C1400.78 51.4427 1401.48 52.187 1402.37 52.709C1403.26 53.2117 1404.27 53.463 1405.39 53.463C1406.47 53.463 1407.46 53.202 1408.35 52.68C1409.26 52.158 1409.97 51.4137 1410.49 50.447C1411.01 49.4803 1411.28 48.359 1411.28 47.083ZM1421.42 41.979C1421.86 40.993 1422.54 40.2293 1423.45 39.688C1424.38 39.1467 1425.51 38.876 1426.84 38.876V40.993H1426.29C1424.82 40.993 1423.64 41.3893 1422.75 42.182C1421.86 42.9747 1421.42 44.299 1421.42 46.155V55H1419.39V39.166H1421.42V41.979ZM1445.67 46.271C1445.67 46.967 1445.65 47.4987 1445.61 47.866H1432.48C1432.54 49.0647 1432.83 50.0893 1433.35 50.94C1433.87 51.7907 1434.56 52.4383 1435.41 52.883C1436.26 53.3083 1437.19 53.521 1438.19 53.521C1439.51 53.521 1440.61 53.202 1441.5 52.564C1442.41 51.926 1443 51.0657 1443.29 49.983H1445.44C1445.05 51.5297 1444.22 52.796 1442.95 53.782C1441.69 54.7487 1440.1 55.232 1438.19 55.232C1436.7 55.232 1435.37 54.9033 1434.19 54.246C1433.01 53.5693 1432.08 52.622 1431.4 51.404C1430.75 50.1667 1430.42 48.7263 1430.42 47.083C1430.42 45.4397 1430.75 43.9993 1431.4 42.762C1432.06 41.5247 1432.98 40.5773 1434.16 39.92C1435.34 39.2627 1436.68 38.934 1438.19 38.934C1439.7 38.934 1441.01 39.2627 1442.13 39.92C1443.28 40.5773 1444.15 41.4667 1444.74 42.588C1445.36 43.69 1445.67 44.9177 1445.67 46.271ZM1443.61 46.213C1443.63 45.0337 1443.39 44.0283 1442.89 43.197C1442.41 42.3657 1441.74 41.7373 1440.89 41.312C1440.04 40.8867 1439.11 40.674 1438.1 40.674C1436.6 40.674 1435.31 41.1573 1434.25 42.124C1433.18 43.0907 1432.59 44.4537 1432.48 46.213H1443.61ZM1452.87 33.54V55H1450.84V33.54H1452.87ZM1459.26 55.145C1458.84 55.145 1458.48 55 1458.19 54.71C1457.92 54.42 1457.78 54.0623 1457.78 53.637C1457.78 53.2117 1457.92 52.8637 1458.19 52.593C1458.48 52.303 1458.84 52.158 1459.26 52.158C1459.67 52.158 1460.01 52.303 1460.28 52.593C1460.57 52.8637 1460.71 53.2117 1460.71 53.637C1460.71 54.0623 1460.57 54.42 1460.28 54.71C1460.01 55 1459.67 55.145 1459.26 55.145ZM1486.78 50.186H1477.56L1475.79 55H1473.65L1481.04 34.99H1483.33L1490.7 55H1488.55L1486.78 50.186ZM1486.18 48.504L1482.17 37.542L1478.17 48.504H1486.18ZM1497.44 33.54V55H1495.41V33.54H1497.44ZM1505.51 33.54V55H1503.48V33.54H1505.51ZM1531.76 55L1526.74 46.532H1523V55H1520.97V34.729H1527.06C1529.32 34.729 1531.03 35.2703 1532.19 36.353C1533.37 37.4357 1533.96 38.8567 1533.96 40.616C1533.96 42.0853 1533.54 43.342 1532.69 44.386C1531.85 45.4107 1530.62 46.0777 1528.97 46.387L1534.19 55H1531.76ZM1523 44.879H1527.09C1528.67 44.879 1529.86 44.4923 1530.66 43.719C1531.47 42.9457 1531.87 41.9113 1531.87 40.616C1531.87 39.282 1531.49 38.2573 1530.71 37.542C1529.94 36.8073 1528.72 36.44 1527.06 36.44H1523V44.879ZM1540.45 36.179C1540.05 36.179 1539.7 36.034 1539.41 35.744C1539.12 35.454 1538.98 35.0963 1538.98 34.671C1538.98 34.2457 1539.12 33.8977 1539.41 33.627C1539.7 33.337 1540.05 33.192 1540.45 33.192C1540.86 33.192 1541.21 33.337 1541.5 33.627C1541.79 33.8977 1541.93 34.2457 1541.93 34.671C1541.93 35.0963 1541.79 35.454 1541.5 35.744C1541.21 36.034 1540.86 36.179 1540.45 36.179ZM1541.47 39.166V55H1539.44V39.166H1541.47ZM1554.16 38.934C1555.65 38.934 1556.94 39.282 1558.04 39.978C1559.15 40.674 1559.94 41.5537 1560.42 42.617V39.166H1562.45V55.406C1562.45 56.856 1562.13 58.1417 1561.49 59.263C1560.88 60.3843 1560.01 61.2447 1558.88 61.844C1557.76 62.4627 1556.49 62.772 1555.06 62.772C1553.03 62.772 1551.34 62.2887 1549.98 61.322C1548.65 60.3553 1547.82 59.0407 1547.49 57.378H1549.49C1549.84 58.48 1550.49 59.3597 1551.46 60.017C1552.45 60.6743 1553.65 61.003 1555.06 61.003C1556.08 61.003 1557 60.7807 1557.81 60.336C1558.62 59.9107 1559.26 59.2727 1559.73 58.422C1560.19 57.5713 1560.42 56.566 1560.42 55.406V51.491C1559.92 52.5737 1559.12 53.4727 1558.01 54.188C1556.93 54.884 1555.65 55.232 1554.16 55.232C1552.71 55.232 1551.4 54.8937 1550.24 54.217C1549.1 53.5403 1548.2 52.5833 1547.55 51.346C1546.91 50.1087 1546.59 48.678 1546.59 47.054C1546.59 45.43 1546.91 44.009 1547.55 42.791C1548.2 41.5537 1549.1 40.6063 1550.24 39.949C1551.4 39.2723 1552.71 38.934 1554.16 38.934ZM1560.42 47.083C1560.42 45.807 1560.16 44.6857 1559.64 43.719C1559.12 42.7523 1558.4 42.008 1557.49 41.486C1556.6 40.964 1555.62 40.703 1554.53 40.703C1553.41 40.703 1552.41 40.9543 1551.52 41.457C1550.63 41.9597 1549.92 42.6943 1549.4 43.661C1548.9 44.6083 1548.65 45.7393 1548.65 47.054C1548.65 48.3493 1548.9 49.49 1549.4 50.476C1549.92 51.4427 1550.63 52.187 1551.52 52.709C1552.41 53.2117 1553.41 53.463 1554.53 53.463C1555.62 53.463 1556.6 53.202 1557.49 52.68C1558.4 52.158 1559.12 51.4137 1559.64 50.447C1560.16 49.4803 1560.42 48.359 1560.42 47.083ZM1576.08 38.876C1577.27 38.876 1578.35 39.1273 1579.3 39.63C1580.26 40.1327 1581.02 40.906 1581.56 41.95C1582.12 42.9747 1582.4 44.2313 1582.4 45.72V55H1580.4V45.952C1580.4 44.2313 1579.96 42.9167 1579.09 42.008C1578.24 41.0993 1577.07 40.645 1575.58 40.645C1574.06 40.645 1572.84 41.1283 1571.93 42.095C1571.02 43.0617 1570.57 44.4827 1570.57 46.358V55H1568.54V33.54H1570.57V41.863C1571.07 40.9157 1571.8 40.181 1572.77 39.659C1573.76 39.137 1574.86 38.876 1576.08 38.876ZM1590.98 40.877V50.708C1590.98 51.6747 1591.16 52.3417 1591.53 52.709C1591.9 53.0763 1592.54 53.26 1593.47 53.26H1595.33V55H1593.15C1591.72 55 1590.66 54.6713 1589.96 54.014C1589.27 53.3373 1588.92 52.2353 1588.92 50.708V40.877H1586.71V39.166H1588.92V35.193H1590.98V39.166H1595.33V40.877H1590.98ZM1605.58 55.232C1603.76 55.232 1602.27 54.8163 1601.11 53.985C1599.97 53.1343 1599.33 51.984 1599.2 50.534H1601.28C1601.38 51.4233 1601.8 52.1483 1602.53 52.709C1603.29 53.2503 1604.29 53.521 1605.55 53.521C1606.65 53.521 1607.51 53.26 1608.13 52.738C1608.77 52.216 1609.09 51.5683 1609.09 50.795C1609.09 50.2537 1608.91 49.809 1608.56 49.461C1608.22 49.113 1607.77 48.8423 1607.23 48.649C1606.71 48.4363 1605.99 48.214 1605.08 47.982C1603.9 47.6727 1602.95 47.3633 1602.21 47.054C1601.48 46.7447 1600.85 46.2903 1600.33 45.691C1599.82 45.0723 1599.57 44.2507 1599.57 43.226C1599.57 42.4527 1599.81 41.7373 1600.27 41.08C1600.73 40.4227 1601.39 39.9007 1602.24 39.514C1603.09 39.1273 1604.06 38.934 1605.14 38.934C1606.84 38.934 1608.22 39.369 1609.26 40.239C1610.3 41.0897 1610.86 42.269 1610.94 43.777H1608.91C1608.85 42.849 1608.49 42.1047 1607.81 41.544C1607.15 40.964 1606.24 40.674 1605.08 40.674C1604.06 40.674 1603.23 40.9157 1602.59 41.399C1601.95 41.8823 1601.63 42.4817 1601.63 43.197C1601.63 43.8157 1601.82 44.328 1602.18 44.734C1602.57 45.1207 1603.04 45.43 1603.6 45.662C1604.17 45.8747 1604.92 46.1163 1605.87 46.387C1607.01 46.6963 1607.92 46.996 1608.59 47.286C1609.27 47.576 1609.85 48.0013 1610.33 48.562C1610.82 49.1227 1611.07 49.867 1611.09 50.795C1611.09 51.6457 1610.85 52.4093 1610.39 53.086C1609.93 53.7433 1609.28 54.2653 1608.45 54.652C1607.62 55.0387 1606.66 55.232 1605.58 55.232ZM1636.55 55L1631.54 46.532H1627.8V55H1625.77V34.729H1631.86C1634.12 34.729 1635.83 35.2703 1636.99 36.353C1638.17 37.4357 1638.76 38.8567 1638.76 40.616C1638.76 42.0853 1638.33 43.342 1637.48 44.386C1636.65 45.4107 1635.41 46.0777 1633.77 46.387L1638.99 55H1636.55ZM1627.8 44.879H1631.88C1633.47 44.879 1634.66 44.4923 1635.45 43.719C1636.26 42.9457 1636.67 41.9113 1636.67 40.616C1636.67 39.282 1636.28 38.2573 1635.51 37.542C1634.74 36.8073 1633.52 36.44 1631.86 36.44H1627.8V44.879ZM1658.56 46.271C1658.56 46.967 1658.54 47.4987 1658.5 47.866H1645.37C1645.43 49.0647 1645.72 50.0893 1646.24 50.94C1646.76 51.7907 1647.45 52.4383 1648.3 52.883C1649.15 53.3083 1650.07 53.521 1651.08 53.521C1652.39 53.521 1653.5 53.202 1654.39 52.564C1655.29 51.926 1655.89 51.0657 1656.18 49.983H1658.33C1657.94 51.5297 1657.11 52.796 1655.84 53.782C1654.58 54.7487 1652.99 55.232 1651.08 55.232C1649.59 55.232 1648.26 54.9033 1647.08 54.246C1645.9 53.5693 1644.97 52.622 1644.29 51.404C1643.64 50.1667 1643.31 48.7263 1643.31 47.083C1643.31 45.4397 1643.64 43.9993 1644.29 42.762C1644.95 41.5247 1645.87 40.5773 1647.05 39.92C1648.23 39.2627 1649.57 38.934 1651.08 38.934C1652.59 38.934 1653.9 39.2627 1655.02 39.92C1656.16 40.5773 1657.03 41.4667 1657.63 42.588C1658.25 43.69 1658.56 44.9177 1658.56 46.271ZM1656.5 46.213C1656.52 45.0337 1656.28 44.0283 1655.78 43.197C1655.29 42.3657 1654.63 41.7373 1653.78 41.312C1652.93 40.8867 1652 40.674 1650.99 40.674C1649.49 40.674 1648.2 41.1573 1647.14 42.124C1646.07 43.0907 1645.48 44.4537 1645.37 46.213H1656.5ZM1669.18 55.232C1667.36 55.232 1665.87 54.8163 1664.71 53.985C1663.57 53.1343 1662.93 51.984 1662.8 50.534H1664.89C1664.98 51.4233 1665.4 52.1483 1666.13 52.709C1666.89 53.2503 1667.89 53.521 1669.15 53.521C1670.25 53.521 1671.11 53.26 1671.73 52.738C1672.37 52.216 1672.69 51.5683 1672.69 50.795C1672.69 50.2537 1672.51 49.809 1672.17 49.461C1671.82 49.113 1671.37 48.8423 1670.83 48.649C1670.31 48.4363 1669.59 48.214 1668.69 47.982C1667.51 47.6727 1666.55 47.3633 1665.81 47.054C1665.08 46.7447 1664.45 46.2903 1663.93 45.691C1663.43 45.0723 1663.18 44.2507 1663.18 43.226C1663.18 42.4527 1663.41 41.7373 1663.87 41.08C1664.34 40.4227 1664.99 39.9007 1665.84 39.514C1666.69 39.1273 1667.66 38.934 1668.74 38.934C1670.44 38.934 1671.82 39.369 1672.86 40.239C1673.91 41.0897 1674.47 42.269 1674.54 43.777H1672.51C1672.46 42.849 1672.09 42.1047 1671.41 41.544C1670.75 40.964 1669.85 40.674 1668.69 40.674C1667.66 40.674 1666.83 40.9157 1666.19 41.399C1665.55 41.8823 1665.23 42.4817 1665.23 43.197C1665.23 43.8157 1665.42 44.328 1665.79 44.734C1666.17 45.1207 1666.65 45.43 1667.21 45.662C1667.77 45.8747 1668.52 46.1163 1669.47 46.387C1670.61 46.6963 1671.52 46.996 1672.19 47.286C1672.87 47.576 1673.45 48.0013 1673.93 48.562C1674.42 49.1227 1674.67 49.867 1674.69 50.795C1674.69 51.6457 1674.46 52.4093 1673.99 53.086C1673.53 53.7433 1672.88 54.2653 1672.05 54.652C1671.22 55.0387 1670.26 55.232 1669.18 55.232ZM1694.29 46.271C1694.29 46.967 1694.27 47.4987 1694.23 47.866H1681.09C1681.15 49.0647 1681.44 50.0893 1681.96 50.94C1682.48 51.7907 1683.17 52.4383 1684.02 52.883C1684.87 53.3083 1685.8 53.521 1686.8 53.521C1688.12 53.521 1689.22 53.202 1690.11 52.564C1691.02 51.926 1691.62 51.0657 1691.91 49.983H1694.05C1693.67 51.5297 1692.84 52.796 1691.56 53.782C1690.3 54.7487 1688.72 55.232 1686.8 55.232C1685.31 55.232 1683.98 54.9033 1682.8 54.246C1681.62 53.5693 1680.69 52.622 1680.02 51.404C1679.36 50.1667 1679.03 48.7263 1679.03 47.083C1679.03 45.4397 1679.36 43.9993 1680.02 42.762C1680.67 41.5247 1681.59 40.5773 1682.77 39.92C1683.95 39.2627 1685.3 38.934 1686.8 38.934C1688.31 38.934 1689.63 39.2627 1690.75 39.92C1691.89 40.5773 1692.76 41.4667 1693.36 42.588C1693.98 43.69 1694.29 44.9177 1694.29 46.271ZM1692.23 46.213C1692.25 45.0337 1692 44.0283 1691.5 43.197C1691.02 42.3657 1690.35 41.7373 1689.5 41.312C1688.65 40.8867 1687.72 40.674 1686.72 40.674C1685.21 40.674 1683.92 41.1573 1682.86 42.124C1681.8 43.0907 1681.21 44.4537 1681.09 46.213H1692.23ZM1701.48 41.979C1701.92 40.993 1702.6 40.2293 1703.51 39.688C1704.44 39.1467 1705.57 38.876 1706.9 38.876V40.993H1706.35C1704.88 40.993 1703.7 41.3893 1702.81 42.182C1701.92 42.9747 1701.48 44.299 1701.48 46.155V55H1699.45V39.166H1701.48V41.979ZM1717.03 53.028L1722.37 39.166H1724.51L1718.16 55H1715.87L1709.52 39.166H1711.7L1717.03 53.028ZM1743.04 46.271C1743.04 46.967 1743.02 47.4987 1742.98 47.866H1729.85C1729.9 49.0647 1730.19 50.0893 1730.72 50.94C1731.24 51.7907 1731.93 52.4383 1732.78 52.883C1733.63 53.3083 1734.55 53.521 1735.56 53.521C1736.87 53.521 1737.98 53.202 1738.87 52.564C1739.77 51.926 1740.37 51.0657 1740.66 49.983H1742.81C1742.42 51.5297 1741.59 52.796 1740.32 53.782C1739.06 54.7487 1737.47 55.232 1735.56 55.232C1734.07 55.232 1732.74 54.9033 1731.56 54.246C1730.38 53.5693 1729.45 52.622 1728.77 51.404C1728.12 50.1667 1727.79 48.7263 1727.79 47.083C1727.79 45.4397 1728.12 43.9993 1728.77 42.762C1729.43 41.5247 1730.35 40.5773 1731.53 39.92C1732.71 39.2627 1734.05 38.934 1735.56 38.934C1737.07 38.934 1738.38 39.2627 1739.5 39.92C1740.64 40.5773 1741.51 41.4667 1742.11 42.588C1742.73 43.69 1743.04 44.9177 1743.04 46.271ZM1740.98 46.213C1741 45.0337 1740.76 44.0283 1740.26 43.197C1739.77 42.3657 1739.11 41.7373 1738.26 41.312C1737.41 40.8867 1736.48 40.674 1735.47 40.674C1733.96 40.674 1732.68 41.1573 1731.62 42.124C1730.55 43.0907 1729.96 44.4537 1729.85 46.213H1740.98ZM1747.28 47.054C1747.28 45.43 1747.61 44.009 1748.26 42.791C1748.92 41.5537 1749.82 40.6063 1750.96 39.949C1752.12 39.2723 1753.43 38.934 1754.88 38.934C1756.27 38.934 1757.52 39.2723 1758.65 39.949C1759.77 40.6257 1760.59 41.5053 1761.11 42.588V33.54H1763.14V55H1761.11V51.462C1760.63 52.564 1759.83 53.4727 1758.73 54.188C1757.63 54.884 1756.34 55.232 1754.85 55.232C1753.4 55.232 1752.09 54.8937 1750.93 54.217C1749.79 53.5403 1748.89 52.5833 1748.23 51.346C1747.6 50.1087 1747.28 48.678 1747.28 47.054ZM1761.11 47.083C1761.11 45.807 1760.85 44.6857 1760.33 43.719C1759.81 42.7523 1759.09 42.008 1758.18 41.486C1757.29 40.964 1756.31 40.703 1755.22 40.703C1754.1 40.703 1753.1 40.9543 1752.21 41.457C1751.32 41.9597 1750.61 42.6943 1750.09 43.661C1749.59 44.6083 1749.34 45.7393 1749.34 47.054C1749.34 48.3493 1749.59 49.49 1750.09 50.476C1750.61 51.4427 1751.32 52.187 1752.21 52.709C1753.1 53.2117 1754.1 53.463 1755.22 53.463C1756.31 53.463 1757.29 53.202 1758.18 52.68C1759.09 52.158 1759.81 51.4137 1760.33 50.447C1760.85 49.4803 1761.11 48.359 1761.11 47.083Z" fill="white"/>
</svg>
