<svg width="92" height="92" viewBox="0 0 92 92" fill="none" xmlns="http://www.w3.org/2000/svg">
<g clip-path="url(#clip0_24_50)">
<path d="M92 80.5C92 83.55 90.7884 86.4751 88.6317 88.6317C86.4751 90.7884 83.55 92 80.5 92H11.5C8.45001 92 5.52494 90.7884 3.36827 88.6317C1.2116 86.4751 0 83.55 0 80.5V11.5C0 8.45001 1.2116 5.52494 3.36827 3.36827C5.52494 1.2116 8.45001 0 11.5 0L80.5 0C83.55 0 86.4751 1.2116 88.6317 3.36827C90.7884 5.52494 92 8.45001 92 11.5V80.5ZM66.125 43.125H32.8153L45.1605 30.7855C45.7003 30.2457 46.0036 29.5135 46.0036 28.75C46.0036 27.9865 45.7003 27.2543 45.1605 26.7145C44.6207 26.1747 43.8885 25.8714 43.125 25.8714C42.3615 25.8714 41.6293 26.1747 41.0895 26.7145L23.8395 43.9645C23.5718 44.2316 23.3593 44.5488 23.2144 44.8981C23.0695 45.2474 22.9949 45.6218 22.9949 46C22.9949 46.3782 23.0695 46.7526 23.2144 47.1019C23.3593 47.4512 23.5718 47.7684 23.8395 48.0355L41.0895 65.2855C41.6293 65.8253 42.3615 66.1286 43.125 66.1286C43.8885 66.1286 44.6207 65.8253 45.1605 65.2855C45.7003 64.7457 46.0036 64.0135 46.0036 63.25C46.0036 62.4865 45.7003 61.7543 45.1605 61.2145L32.8153 48.875H66.125C66.8875 48.875 67.6188 48.5721 68.1579 48.0329C68.6971 47.4938 69 46.7625 69 46C69 45.2375 68.6971 44.5062 68.1579 43.9671C67.6188 43.4279 66.8875 43.125 66.125 43.125Z" fill="white"/>
</g>
<defs>
<clipPath id="clip0_24_50">
<rect width="92" height="92" rx="46" fill="white"/>
</clipPath>
</defs>
</svg>
