<svg width="92" height="92" viewBox="0 0 92 92" fill="none" xmlns="http://www.w3.org/2000/svg">
<g clip-path="url(#clip0_24_48)">
<path d="M0 80.5C0 83.55 1.21161 86.4751 3.36827 88.6317C5.52494 90.7884 8.45001 92 11.5 92H80.5C83.55 92 86.4751 90.7884 88.6317 88.6317C90.7884 86.4751 92 83.55 92 80.5V11.5C92 8.45001 90.7884 5.52494 88.6317 3.36827C86.4751 1.2116 83.55 0 80.5 0L11.5 0C8.45001 0 5.52494 1.2116 3.36827 3.36827C1.21161 5.52494 0 8.45001 0 11.5V80.5ZM25.875 43.125H59.1847L46.8395 30.7855C46.2997 30.2457 45.9964 29.5135 45.9964 28.75C45.9964 27.9865 46.2997 27.2543 46.8395 26.7145C47.3793 26.1747 48.1115 25.8714 48.875 25.8714C49.6385 25.8714 50.3707 26.1747 50.9105 26.7145L68.1605 43.9645C68.4282 44.2316 68.6407 44.5488 68.7856 44.8981C68.9305 45.2474 69.0051 45.6218 69.0051 46C69.0051 46.3782 68.9305 46.7526 68.7856 47.1019C68.6407 47.4512 68.4282 47.7684 68.1605 48.0355L50.9105 65.2855C50.3707 65.8253 49.6385 66.1286 48.875 66.1286C48.1115 66.1286 47.3793 65.8253 46.8395 65.2855C46.2997 64.7457 45.9964 64.0135 45.9964 63.25C45.9964 62.4865 46.2997 61.7543 46.8395 61.2145L59.1847 48.875H25.875C25.1125 48.875 24.3812 48.5721 23.8421 48.0329C23.3029 47.4938 23 46.7625 23 46C23 45.2375 23.3029 44.5062 23.8421 43.9671C24.3812 43.4279 25.1125 43.125 25.875 43.125Z" fill="white"/>
</g>
<defs>
<clipPath id="clip0_24_48">
<rect width="92" height="92" rx="46" transform="matrix(-1 0 0 1 92 0)" fill="white"/>
</clipPath>
</defs>
</svg>
