<svg width="611" height="159" viewBox="0 0 611 159" fill="none" xmlns="http://www.w3.org/2000/svg">
<rect y="0.564453" width="611" height="157.711" rx="42" fill="#FAB3AD"/>
<path d="M90.2649 49.2191L81.9829 77.7961H77.8009L71.1589 54.7951L64.2709 77.7961L60.1299 77.8371L52.1349 49.2191H56.1119L62.3439 73.4501L69.2319 49.2191H73.4139L79.9739 73.3681L86.2469 49.2191H90.2649ZM100.129 58.9771C100.785 57.6925 101.714 56.6948 102.917 55.9841C104.147 55.2735 105.637 54.9181 107.386 54.9181V58.7721H106.402C102.22 58.7721 100.129 61.0408 100.129 65.5781V77.7961H96.3979V55.3281H100.129V58.9771ZM115.67 51.6791C114.959 51.6791 114.358 51.4331 113.866 50.9411C113.374 50.4491 113.128 49.8478 113.128 49.1371C113.128 48.4265 113.374 47.8251 113.866 47.3331C114.358 46.8411 114.959 46.5951 115.67 46.5951C116.353 46.5951 116.927 46.8411 117.392 47.3331C117.884 47.8251 118.13 48.4265 118.13 49.1371C118.13 49.8478 117.884 50.4491 117.392 50.9411C116.927 51.4331 116.353 51.6791 115.67 51.6791ZM117.474 55.3281V77.7961H113.743V55.3281H117.474ZM130.434 58.4031V71.6461C130.434 72.7395 130.666 73.5185 131.131 73.9831C131.595 74.4205 132.402 74.6391 133.55 74.6391H136.297V77.7961H132.935C130.857 77.7961 129.299 77.3178 128.261 76.3611C127.222 75.4045 126.703 73.8328 126.703 71.6461V58.4031H123.792V55.3281H126.703V49.6701H130.434V55.3281H136.297V58.4031H130.434ZM163.367 65.7011C163.367 66.4118 163.326 67.1635 163.244 67.9561H145.286C145.423 70.1701 146.175 71.9058 147.541 73.1631C148.935 74.3931 150.616 75.0081 152.584 75.0081C154.197 75.0081 155.536 74.6391 156.602 73.9011C157.696 73.1358 158.461 72.1245 158.898 70.8671H162.916C162.315 73.0265 161.112 74.7895 159.308 76.1561C157.504 77.4955 155.263 78.1651 152.584 78.1651C150.452 78.1651 148.539 77.6868 146.844 76.7301C145.177 75.7735 143.865 74.4205 142.908 72.6711C141.952 70.8945 141.473 68.8445 141.473 66.5211C141.473 64.1978 141.938 62.1615 142.867 60.4121C143.797 58.6628 145.095 57.3235 146.762 56.3941C148.457 55.4375 150.398 54.9591 152.584 54.9591C154.716 54.9591 156.602 55.4238 158.242 56.3531C159.882 57.2825 161.14 58.5671 162.014 60.2071C162.916 61.8198 163.367 63.6511 163.367 65.7011ZM159.513 64.9221C159.513 63.5008 159.199 62.2845 158.57 61.2731C157.942 60.2345 157.081 59.4555 155.987 58.9361C154.921 58.3895 153.732 58.1161 152.42 58.1161C150.534 58.1161 148.922 58.7175 147.582 59.9201C146.27 61.1228 145.519 62.7901 145.327 64.9221H159.513ZM202.675 55.3281L189.145 88.3741H185.291L189.719 77.5501L180.658 55.3281H184.799L191.851 73.5321L198.821 55.3281H202.675ZM218.274 78.1651C216.17 78.1651 214.256 77.6868 212.534 76.7301C210.84 75.7735 209.5 74.4205 208.516 72.6711C207.56 70.8945 207.081 68.8445 207.081 66.5211C207.081 64.2251 207.573 62.2025 208.557 60.4531C209.569 58.6765 210.935 57.3235 212.657 56.3941C214.379 55.4375 216.306 54.9591 218.438 54.9591C220.57 54.9591 222.497 55.4375 224.219 56.3941C225.941 57.3235 227.294 58.6628 228.278 60.4121C229.29 62.1615 229.795 64.1978 229.795 66.5211C229.795 68.8445 229.276 70.8945 228.237 72.6711C227.226 74.4205 225.846 75.7735 224.096 76.7301C222.347 77.6868 220.406 78.1651 218.274 78.1651ZM218.274 74.8851C219.614 74.8851 220.871 74.5708 222.046 73.9421C223.222 73.3135 224.165 72.3705 224.875 71.1131C225.613 69.8558 225.982 68.3251 225.982 66.5211C225.982 64.7171 225.627 63.1865 224.916 61.9291C224.206 60.6718 223.276 59.7425 222.128 59.1411C220.98 58.5125 219.737 58.1981 218.397 58.1981C217.031 58.1981 215.773 58.5125 214.625 59.1411C213.505 59.7425 212.603 60.6718 211.919 61.9291C211.236 63.1865 210.894 64.7171 210.894 66.5211C210.894 68.3525 211.222 69.8968 211.878 71.1541C212.562 72.4115 213.464 73.3545 214.584 73.9831C215.705 74.5845 216.935 74.8851 218.274 74.8851ZM256.677 55.3281V77.7961H252.946V74.4751C252.235 75.6231 251.238 76.5251 249.953 77.1811C248.696 77.8098 247.302 78.1241 245.771 78.1241C244.022 78.1241 242.45 77.7688 241.056 77.0581C239.662 76.3201 238.555 75.2268 237.735 73.7781C236.942 72.3295 236.546 70.5665 236.546 68.4891V55.3281H240.236V67.9971C240.236 70.2111 240.796 71.9195 241.917 73.1221C243.038 74.2975 244.568 74.8851 246.509 74.8851C248.504 74.8851 250.076 74.2701 251.224 73.0401C252.372 71.8101 252.946 70.0198 252.946 67.6691V55.3281H256.677ZM268.757 58.9771C269.413 57.6925 270.343 56.6948 271.545 55.9841C272.775 55.2735 274.265 54.9181 276.014 54.9181V58.7721H275.03C270.848 58.7721 268.757 61.0408 268.757 65.5781V77.7961H265.026V55.3281H268.757V58.9771ZM322.371 54.9181C324.12 54.9181 325.678 55.2871 327.045 56.0251C328.412 56.7358 329.491 57.8155 330.284 59.2641C331.077 60.7128 331.473 62.4758 331.473 64.5531V77.7961H327.783V65.0861C327.783 62.8448 327.223 61.1365 326.102 59.9611C325.009 58.7585 323.519 58.1571 321.633 58.1571C319.692 58.1571 318.148 58.7858 317 60.0431C315.852 61.2731 315.278 63.0635 315.278 65.4141V77.7961H311.588V65.0861C311.588 62.8448 311.028 61.1365 309.907 59.9611C308.814 58.7585 307.324 58.1571 305.438 58.1571C303.497 58.1571 301.953 58.7858 300.805 60.0431C299.657 61.2731 299.083 63.0635 299.083 65.4141V77.7961H295.352V55.3281H299.083V58.5671C299.821 57.3918 300.805 56.4898 302.035 55.8611C303.292 55.2325 304.673 54.9181 306.176 54.9181C308.062 54.9181 309.729 55.3418 311.178 56.1891C312.627 57.0365 313.706 58.2801 314.417 59.9201C315.046 58.3348 316.084 57.1048 317.533 56.2301C318.982 55.3555 320.594 54.9181 322.371 54.9181ZM360.143 65.7011C360.143 66.4118 360.102 67.1635 360.02 67.9561H342.062C342.199 70.1701 342.951 71.9058 344.317 73.1631C345.711 74.3931 347.392 75.0081 349.36 75.0081C350.973 75.0081 352.312 74.6391 353.378 73.9011C354.472 73.1358 355.237 72.1245 355.674 70.8671H359.692C359.091 73.0265 357.888 74.7895 356.084 76.1561C354.28 77.4955 352.039 78.1651 349.36 78.1651C347.228 78.1651 345.315 77.6868 343.62 76.7301C341.953 75.7735 340.641 74.4205 339.684 72.6711C338.728 70.8945 338.249 68.8445 338.249 66.5211C338.249 64.1978 338.714 62.1615 339.643 60.4121C340.573 58.6628 341.871 57.3235 343.538 56.3941C345.233 55.4375 347.174 54.9591 349.36 54.9591C351.492 54.9591 353.378 55.4238 355.018 56.3531C356.658 57.2825 357.916 58.5671 358.79 60.2071C359.692 61.8198 360.143 63.6511 360.143 65.7011ZM356.289 64.9221C356.289 63.5008 355.975 62.2845 355.346 61.2731C354.718 60.2345 353.857 59.4555 352.763 58.9361C351.697 58.3895 350.508 58.1161 349.196 58.1161C347.31 58.1161 345.698 58.7175 344.358 59.9201C343.046 61.1228 342.295 62.7901 342.103 64.9221H356.289ZM375.072 78.1651C373.35 78.1651 371.806 77.8781 370.439 77.3041C369.072 76.7028 367.993 75.8828 367.2 74.8441C366.407 73.7781 365.97 72.5618 365.888 71.1951H369.742C369.851 72.3158 370.371 73.2315 371.3 73.9421C372.257 74.6528 373.5 75.0081 375.031 75.0081C376.452 75.0081 377.573 74.6938 378.393 74.0651C379.213 73.4365 379.623 72.6438 379.623 71.6871C379.623 70.7031 379.186 69.9788 378.311 69.5141C377.436 69.0221 376.083 68.5438 374.252 68.0791C372.585 67.6418 371.218 67.2045 370.152 66.7671C369.113 66.3025 368.211 65.6328 367.446 64.7581C366.708 63.8561 366.339 62.6808 366.339 61.2321C366.339 60.0841 366.681 59.0318 367.364 58.0751C368.047 57.1185 369.018 56.3668 370.275 55.8201C371.532 55.2461 372.967 54.9591 374.58 54.9591C377.067 54.9591 379.076 55.5878 380.607 56.8451C382.138 58.1025 382.958 59.8245 383.067 62.0111H379.336C379.254 60.8358 378.776 59.8928 377.901 59.1821C377.054 58.4715 375.906 58.1161 374.457 58.1161C373.118 58.1161 372.052 58.4031 371.259 58.9771C370.466 59.5511 370.07 60.3028 370.07 61.2321C370.07 61.9701 370.302 62.5851 370.767 63.0771C371.259 63.5418 371.86 63.9245 372.571 64.2251C373.309 64.4985 374.32 64.8128 375.605 65.1681C377.218 65.6055 378.53 66.0428 379.541 66.4801C380.552 66.8901 381.413 67.5188 382.124 68.3661C382.862 69.2135 383.245 70.3205 383.272 71.6871C383.272 72.9171 382.93 74.0241 382.247 75.0081C381.564 75.9921 380.593 76.7711 379.336 77.3451C378.106 77.8918 376.685 78.1651 375.072 78.1651ZM398.543 78.1651C396.821 78.1651 395.277 77.8781 393.91 77.3041C392.543 76.7028 391.464 75.8828 390.671 74.8441C389.878 73.7781 389.441 72.5618 389.359 71.1951H393.213C393.322 72.3158 393.842 73.2315 394.771 73.9421C395.728 74.6528 396.971 75.0081 398.502 75.0081C399.923 75.0081 401.044 74.6938 401.864 74.0651C402.684 73.4365 403.094 72.6438 403.094 71.6871C403.094 70.7031 402.657 69.9788 401.782 69.5141C400.907 69.0221 399.554 68.5438 397.723 68.0791C396.056 67.6418 394.689 67.2045 393.623 66.7671C392.584 66.3025 391.682 65.6328 390.917 64.7581C390.179 63.8561 389.81 62.6808 389.81 61.2321C389.81 60.0841 390.152 59.0318 390.835 58.0751C391.518 57.1185 392.489 56.3668 393.746 55.8201C395.003 55.2461 396.438 54.9591 398.051 54.9591C400.538 54.9591 402.547 55.5878 404.078 56.8451C405.609 58.1025 406.429 59.8245 406.538 62.0111H402.807C402.725 60.8358 402.247 59.8928 401.372 59.1821C400.525 58.4715 399.377 58.1161 397.928 58.1161C396.589 58.1161 395.523 58.4031 394.73 58.9771C393.937 59.5511 393.541 60.3028 393.541 61.2321C393.541 61.9701 393.773 62.5851 394.238 63.0771C394.73 63.5418 395.331 63.9245 396.042 64.2251C396.78 64.4985 397.791 64.8128 399.076 65.1681C400.689 65.6055 402.001 66.0428 403.012 66.4801C404.023 66.8901 404.884 67.5188 405.595 68.3661C406.333 69.2135 406.716 70.3205 406.743 71.6871C406.743 72.9171 406.401 74.0241 405.718 75.0081C405.035 75.9921 404.064 76.7711 402.807 77.3451C401.577 77.8918 400.156 78.1651 398.543 78.1651ZM412.666 66.4801C412.666 64.1841 413.13 62.1751 414.06 60.4531C414.989 58.7038 416.26 57.3508 417.873 56.3941C419.513 55.4375 421.33 54.9591 423.326 54.9591C425.294 54.9591 427.002 55.3828 428.451 56.2301C429.9 57.0775 430.979 58.1435 431.69 59.4281V55.3281H435.462V77.7961H431.69V73.6141C430.952 74.9261 429.845 76.0195 428.369 76.8941C426.92 77.7415 425.225 78.1651 423.285 78.1651C421.289 78.1651 419.485 77.6731 417.873 76.6891C416.26 75.7051 414.989 74.3248 414.06 72.5481C413.13 70.7715 412.666 68.7488 412.666 66.4801ZM431.69 66.5211C431.69 64.8265 431.348 63.3505 430.665 62.0931C429.981 60.8358 429.052 59.8791 427.877 59.2231C426.729 58.5398 425.458 58.1981 424.064 58.1981C422.67 58.1981 421.399 58.5261 420.251 59.1821C419.103 59.8381 418.187 60.7948 417.504 62.0521C416.82 63.3095 416.479 64.7855 416.479 66.4801C416.479 68.2021 416.82 69.7055 417.504 70.9901C418.187 72.2475 419.103 73.2178 420.251 73.9011C421.399 74.5571 422.67 74.8851 424.064 74.8851C425.458 74.8851 426.729 74.5571 427.877 73.9011C429.052 73.2178 429.981 72.2475 430.665 70.9901C431.348 69.7055 431.69 68.2158 431.69 66.5211ZM453.083 54.9591C455.024 54.9591 456.718 55.3828 458.167 56.2301C459.643 57.0775 460.736 58.1435 461.447 59.4281V55.3281H465.219V78.2881C465.219 80.3381 464.782 82.1558 463.907 83.7411C463.032 85.3538 461.775 86.6111 460.135 87.5131C458.522 88.4151 456.636 88.8661 454.477 88.8661C451.525 88.8661 449.065 88.1691 447.097 86.7751C445.129 85.3811 443.967 83.4815 443.612 81.0761H447.302C447.712 82.4428 448.559 83.5361 449.844 84.3561C451.129 85.2035 452.673 85.6271 454.477 85.6271C456.527 85.6271 458.194 84.9848 459.479 83.7001C460.791 82.4155 461.447 80.6115 461.447 78.2881V73.5731C460.709 74.8851 459.616 75.9785 458.167 76.8531C456.718 77.7278 455.024 78.1651 453.083 78.1651C451.088 78.1651 449.27 77.6731 447.63 76.6891C446.017 75.7051 444.746 74.3248 443.817 72.5481C442.888 70.7715 442.423 68.7488 442.423 66.4801C442.423 64.1841 442.888 62.1751 443.817 60.4531C444.746 58.7038 446.017 57.3508 447.63 56.3941C449.27 55.4375 451.088 54.9591 453.083 54.9591ZM461.447 66.5211C461.447 64.8265 461.105 63.3505 460.422 62.0931C459.739 60.8358 458.809 59.8791 457.634 59.2231C456.486 58.5398 455.215 58.1981 453.821 58.1981C452.427 58.1981 451.156 58.5261 450.008 59.1821C448.86 59.8381 447.944 60.7948 447.261 62.0521C446.578 63.3095 446.236 64.7855 446.236 66.4801C446.236 68.2021 446.578 69.7055 447.261 70.9901C447.944 72.2475 448.86 73.2178 450.008 73.9011C451.156 74.5571 452.427 74.8851 453.821 74.8851C455.215 74.8851 456.486 74.5571 457.634 73.9011C458.809 73.2178 459.739 72.2475 460.422 70.9901C461.105 69.7055 461.447 68.2158 461.447 66.5211ZM494.074 65.7011C494.074 66.4118 494.033 67.1635 493.951 67.9561H475.993C476.13 70.1701 476.881 71.9058 478.248 73.1631C479.642 74.3931 481.323 75.0081 483.291 75.0081C484.904 75.0081 486.243 74.6391 487.309 73.9011C488.402 73.1358 489.168 72.1245 489.605 70.8671H493.623C493.022 73.0265 491.819 74.7895 490.015 76.1561C488.211 77.4955 485.97 78.1651 483.291 78.1651C481.159 78.1651 479.246 77.6868 477.551 76.7301C475.884 75.7735 474.572 74.4205 473.615 72.6711C472.658 70.8945 472.18 68.8445 472.18 66.5211C472.18 64.1978 472.645 62.1615 473.574 60.4121C474.503 58.6628 475.802 57.3235 477.469 56.3941C479.164 55.4375 481.104 54.9591 483.291 54.9591C485.423 54.9591 487.309 55.4238 488.949 56.3531C490.589 57.2825 491.846 58.5671 492.721 60.2071C493.623 61.8198 494.074 63.6511 494.074 65.7011ZM490.22 64.9221C490.22 63.5008 489.906 62.2845 489.277 61.2731C488.648 60.2345 487.787 59.4555 486.694 58.9361C485.628 58.3895 484.439 58.1161 483.127 58.1161C481.241 58.1161 479.628 58.7175 478.289 59.9201C476.977 61.1228 476.225 62.7901 476.034 64.9221H490.22ZM524.197 72.2201L514.316 62.7901L524.197 53.4011H528.912L518.99 62.7901L528.912 72.2201H524.197ZM538.125 55.6151C538.316 53.1005 539.286 51.1325 541.036 49.7111C542.785 48.2898 545.054 47.5791 547.842 47.5791C549.7 47.5791 551.299 47.9208 552.639 48.6041C554.005 49.2601 555.03 50.1621 555.714 51.3101C556.424 52.4581 556.78 53.7565 556.78 55.2051C556.78 56.8998 556.288 58.3621 555.304 59.5921C554.347 60.8221 553.09 61.6148 551.532 61.9701V62.1751C553.308 62.6125 554.716 63.4735 555.755 64.7581C556.793 66.0428 557.313 67.7238 557.313 69.8011C557.313 71.3591 556.957 72.7668 556.247 74.0241C555.536 75.2541 554.47 76.2245 553.049 76.9351C551.627 77.6458 549.919 78.0011 547.924 78.0011C545.026 78.0011 542.648 77.2495 540.79 75.7461C538.931 74.2155 537.892 72.0561 537.674 69.2681H541.282C541.473 70.9081 542.143 72.2475 543.291 73.2861C544.439 74.3248 545.969 74.8441 547.883 74.8441C549.796 74.8441 551.245 74.3521 552.229 73.3681C553.24 72.3568 553.746 71.0585 553.746 69.4731C553.746 67.4231 553.062 65.9471 551.696 65.0451C550.329 64.1431 548.265 63.6921 545.505 63.6921H544.562V60.5761H545.546C548.06 60.5488 549.96 60.1388 551.245 59.3461C552.529 58.5261 553.172 57.2688 553.172 55.5741C553.172 54.1255 552.693 52.9638 551.737 52.0891C550.807 51.2145 549.468 50.7771 547.719 50.7771C546.024 50.7771 544.657 51.2145 543.619 52.0891C542.58 52.9638 541.965 54.1391 541.774 55.6151H538.125Z" fill="white"/>
</svg>
