<svg width="51" height="50" viewBox="0 0 51 50" fill="none" xmlns="http://www.w3.org/2000/svg">
<path d="M25.3438 25C28.659 25 31.8384 23.683 34.1826 21.3388C36.5268 18.9946 37.8438 15.8152 37.8438 12.5C37.8438 9.18479 36.5268 6.00537 34.1826 3.66117C31.8384 1.31696 28.659 0 25.3438 0C22.0285 0 18.8491 1.31696 16.5049 3.66117C14.1607 6.00537 12.8438 9.18479 12.8438 12.5C12.8438 15.8152 14.1607 18.9946 16.5049 21.3388C18.8491 23.683 22.0285 25 25.3438 25ZM33.6771 12.5C33.6771 14.7101 32.7991 16.8298 31.2363 18.3926C29.6735 19.9554 27.5539 20.8333 25.3438 20.8333C23.1336 20.8333 21.014 19.9554 19.4512 18.3926C17.8884 16.8298 17.0104 14.7101 17.0104 12.5C17.0104 10.2899 17.8884 8.17025 19.4512 6.60744C21.014 5.04464 23.1336 4.16667 25.3438 4.16667C27.5539 4.16667 29.6735 5.04464 31.2363 6.60744C32.7991 8.17025 33.6771 10.2899 33.6771 12.5ZM50.3438 45.8333C50.3438 50 46.1771 50 46.1771 50H4.51042C4.51042 50 0.34375 50 0.34375 45.8333C0.34375 41.6667 4.51042 29.1667 25.3438 29.1667C46.1771 29.1667 50.3438 41.6667 50.3438 45.8333ZM46.1771 45.8167C46.1729 44.7917 45.5354 41.7083 42.7104 38.8833C39.9937 36.1667 34.8812 33.3333 25.3438 33.3333C15.8062 33.3333 10.6937 36.1667 7.97708 38.8833C5.15208 41.7083 4.51875 44.7917 4.51042 45.8167H46.1771Z" fill="#C04747"/>
</svg>
