<svg width="52" height="56" viewBox="0 0 52 56" fill="none" xmlns="http://www.w3.org/2000/svg">
<path d="M26.1719 4.23144C28.6183 4.23144 30.9646 5.12579 32.6944 6.71775C34.4243 8.3097 35.3962 10.4688 35.3962 12.7202V14.418H16.9475V12.7202C16.9475 10.4688 17.9194 8.3097 19.6493 6.71775C21.3792 5.12579 23.7254 4.23144 26.1719 4.23144ZM39.0859 14.418V12.7202C39.0859 9.56831 37.7253 6.54549 35.3035 4.31676C32.8816 2.08803 29.5969 0.835938 26.1719 0.835938C22.7468 0.835938 19.4621 2.08803 17.0402 4.31676C14.6184 6.54549 13.2578 9.56831 13.2578 12.7202V14.418H0.34375V48.373C0.34375 50.1741 1.12123 51.9014 2.50514 53.175C3.88906 54.4486 5.76606 55.164 7.72321 55.164H44.6205C46.5777 55.164 48.4547 54.4486 49.8386 53.175C51.2225 51.9014 52 50.1741 52 48.373V14.418H39.0859ZM4.03348 17.8135H48.3102V48.373C48.3102 49.2736 47.9215 50.1372 47.2295 50.774C46.5376 51.4108 45.5991 51.7685 44.6205 51.7685H7.72321C6.74463 51.7685 5.80614 51.4108 5.11418 50.774C4.42222 50.1372 4.03348 49.2736 4.03348 48.373V17.8135Z" fill="#C04747"/>
</svg>
