<svg width="198" height="192" viewBox="0 0 198 192" fill="none" xmlns="http://www.w3.org/2000/svg">
<path d="M50.1201 71.645H54.5806L52.3247 53.5981L50.1201 71.645ZM56.6313 88L55.6572 80.207H49.0435L48.0693 88H39.4561L48.0693 19.2476H56.6313L65.2446 88H56.6313ZM87.4136 19.2476H96.0269V88H87.4136L81.7227 58.52V88H73.1094V19.2476H81.7227L87.4136 50.9834V19.2476ZM131.68 19.2476L122.144 66.0566H122.092V88H113.479V66.0566H113.428L103.892 19.2476H112.505L117.786 45.1899L123.066 19.2476H131.68ZM143.492 71.645H147.953L145.697 53.5981L143.492 71.645ZM150.003 88L149.029 80.207H142.416L141.441 88H132.828L141.441 19.2476H150.003L158.617 88H150.003Z" fill="#C04747"/>
<path d="M11.5859 152.645H16.0464L13.7905 134.598L11.5859 152.645ZM18.0972 169L17.123 161.207H10.5093L9.53516 169H0.921875L9.53516 100.248H18.0972L26.7104 169H18.0972ZM48.0591 135.624V112.604C48.0591 111.065 47.5635 110.006 46.5723 109.425C46.0938 109.151 45.5981 109.032 45.0854 109.066H43.1885V139.161H45.0854C45.5981 139.195 46.0938 139.076 46.5723 138.802C47.5635 138.221 48.0591 137.162 48.0591 135.624ZM56.5186 111.271V136.957C56.5186 137.914 56.5015 138.734 56.4673 139.417C56.3647 141.229 56.1255 142.682 55.7495 143.775C54.7925 146.578 52.6392 147.979 49.2896 147.979H43.1885V169H34.5752V100.248H49.2896C52.6392 100.248 54.7925 101.649 55.7495 104.452C56.1255 105.58 56.3647 107.032 56.4673 108.81C56.5015 109.493 56.5186 110.313 56.5186 111.271ZM77.8159 135.624V112.604C77.8159 111.065 77.3203 110.006 76.3291 109.425C75.8506 109.151 75.355 109.032 74.8423 109.066H72.9453V139.161H74.8423C75.355 139.195 75.8506 139.076 76.3291 138.802C77.3203 138.221 77.8159 137.162 77.8159 135.624ZM86.2754 111.271V136.957C86.2754 137.914 86.2583 138.734 86.2241 139.417C86.1216 141.229 85.8823 142.682 85.5063 143.775C84.5493 146.578 82.396 147.979 79.0464 147.979H72.9453V169H64.332V100.248H79.0464C82.396 100.248 84.5493 101.649 85.5063 104.452C85.8823 105.58 86.1216 107.032 86.2241 108.81C86.2583 109.493 86.2754 110.313 86.2754 111.271ZM102.189 152.645H106.65L104.394 134.598L102.189 152.645ZM108.701 169L107.727 161.207H101.113L100.139 169H91.5254L100.139 100.248H108.701L117.314 169H108.701ZM133.792 109.066V136.29H135.689C136.202 136.324 136.697 136.205 137.176 135.931C138.167 135.384 138.663 134.325 138.663 132.752V112.604C138.663 111.065 138.167 110.006 137.176 109.425C136.697 109.151 136.202 109.032 135.689 109.066H133.792ZM125.179 100.248H139.893C143.243 100.248 145.396 101.649 146.353 104.452C146.729 105.58 146.968 107.032 147.071 108.81C147.105 109.493 147.122 110.313 147.122 111.271V131.522C147.122 132.718 146.9 134.085 146.456 135.624C145.875 137.469 145.088 139.093 144.097 140.494C145.293 141.554 146.062 143.263 146.404 145.621C146.541 146.51 146.626 147.621 146.661 148.954V150.799V169H138.201V151.415C138.201 150.56 138.047 149.842 137.74 149.261C137.5 148.817 137.159 148.475 136.714 148.236C136.202 147.962 135.706 147.843 135.228 147.877H133.792V169H125.179V100.248ZM172.111 108.861H163.549V130.343H172.111V138.956H163.549V160.387H172.111V169H154.936V100.248H172.111V108.861ZM188.589 160.387H197.151V169H179.976V100.248H188.589V160.387Z" fill="#2C2827"/>
</svg>
